<svg xmlns="http://www.w3.org/2000/svg" xmlns:xlink="http://www.w3.org/1999/xlink" width="500" zoomAndPan="magnify" viewBox="0 0 375 374.999991" height="500" preserveAspectRatio="xMidYMid meet" version="1.0"><defs><g/></defs><g fill="#ff3131" fill-opacity="1"><g transform="translate(29.053596, 207.191049)"><g><path d="M 2.859375 8.75 C 5.25 8.75 8.75 3.40625 10.046875 1.375 C 12.34375 -2.390625 14.5625 -6.078125 16.765625 -10.046875 L 25.609375 -25.0625 C 26.15625 -26.078125 26.71875 -26.53125 27.171875 -26.53125 C 27.453125 -26.53125 27.90625 -26.4375 28.5625 -26.25 C 31.78125 -25.25 35.09375 -24.40625 38.515625 -24.328125 C 39.34375 -24.328125 39.703125 -23.953125 39.609375 -23.21875 C 39.609375 -22.9375 39.609375 -22.578125 39.515625 -22.296875 C 39.421875 -22.015625 39.421875 -21.65625 39.421875 -21.375 C 38.78125 -16.671875 38.328125 -11.96875 38.59375 -7.28125 C 38.6875 -4.046875 39.15625 -0.828125 40.265625 2.21875 C 41.265625 4.515625 42.75 6.078125 44.6875 6.90625 C 45.140625 7.1875 45.609375 7.28125 46.15625 7.28125 L 46.703125 7.28125 C 47.53125 7.1875 48.09375 6.265625 48 5.25 C 47.90625 4.515625 47.4375 3.875 46.796875 3.875 C 46.609375 3.875 46.4375 3.875 46.34375 3.96875 C 45.96875 4.140625 45.609375 4.234375 45.328125 4.234375 C 43.203125 4.234375 41.828125 -0.453125 41.546875 -2.21875 C 41.09375 -4.515625 40.8125 -6.90625 40.90625 -9.390625 C 41.1875 -21.65625 43.765625 -33.171875 46.609375 -45.046875 C 47.078125 -46.984375 47.4375 -48.828125 47.8125 -50.9375 C 48.09375 -51.953125 48.1875 -53.0625 47.71875 -54.171875 C 47.359375 -55 46.796875 -55.359375 45.96875 -55.359375 C 45.875 -55.359375 45.609375 -55.28125 45.234375 -55.1875 C 42.375 -53.609375 35.65625 -45.140625 33.90625 -42.375 C 32.703125 -40.4375 31.421875 -38.515625 30.125 -36.578125 C 28.828125 -34.640625 27.546875 -32.703125 26.25 -30.765625 C 25.703125 -29.9375 25.25 -29.578125 24.96875 -29.578125 C 24.875 -29.578125 24.5 -29.671875 23.859375 -29.75 C 22.84375 -30.03125 21.734375 -30.21875 20.734375 -30.40625 C 19.71875 -30.578125 18.609375 -30.765625 17.59375 -30.953125 C 16.953125 -31.046875 16.21875 -31.140625 15.5625 -31.140625 C 13.453125 -31.140625 10.875 -30.671875 9.484375 -28.921875 C 8.75 -28.09375 8.65625 -27.078125 9.125 -26.078125 C 9.671875 -25.0625 10.5 -24.59375 11.515625 -24.59375 C 11.796875 -24.78125 11.96875 -24.875 11.96875 -24.875 C 12.0625 -25.0625 12.0625 -25.25 11.890625 -25.421875 C 11.796875 -25.515625 11.796875 -25.609375 11.703125 -25.609375 C 11.609375 -25.609375 11.421875 -25.703125 11.328125 -25.796875 C 9.953125 -27 10.046875 -27.90625 11.609375 -28.65625 C 12.984375 -29.296875 13.734375 -29.296875 15.296875 -29.296875 C 18.15625 -29.296875 21 -28.75 23.859375 -27.546875 C 23.859375 -27.078125 23.765625 -26.8125 23.578125 -26.53125 C 23.40625 -26.25 23.21875 -25.984375 23.125 -25.703125 L 12.0625 -6.640625 C 11.0625 -4.96875 10.140625 -3.3125 9.21875 -1.75 C 8.203125 -0.09375 7.1875 1.46875 5.984375 3.046875 C 5.15625 4.140625 4.421875 5.0625 3.6875 5.796875 C 3.5 5.984375 3.3125 6.078125 3.046875 6.078125 C 2.671875 6.078125 2.390625 5.890625 2.296875 5.4375 C 1.9375 3.5 2.03125 1.65625 2.484375 0.09375 C 2.671875 -0.640625 3.046875 -1.015625 3.6875 -1.109375 C 4.046875 -1.203125 4.515625 -1.375 4.421875 -1.84375 C 4.328125 -2.296875 4.046875 -2.671875 3.40625 -2.859375 C 2.296875 -2.859375 1.84375 -2.671875 1.203125 -1.65625 C -0.1875 1.203125 -0.375 4.140625 0.640625 7.09375 L 0.921875 7.640625 C 1.375 8.390625 2.03125 8.75 2.859375 8.75 Z M 37.5 -26.8125 C 34.546875 -26.8125 31.78125 -27.640625 28.921875 -28.46875 C 28.28125 -28.5625 28.09375 -28.921875 28.375 -29.578125 C 28.46875 -29.84375 28.65625 -30.03125 28.828125 -30.3125 C 28.921875 -30.5 29.109375 -30.671875 29.203125 -30.859375 C 32.0625 -35.1875 34.828125 -39.34375 37.765625 -43.671875 C 38.6875 -45.046875 39.703125 -46.34375 40.90625 -47.53125 C 42.015625 -48.734375 43.109375 -49.9375 44.21875 -51.125 C 44.5 -51.5 44.6875 -51.59375 44.953125 -51.5 C 45.234375 -51.40625 45.421875 -51.3125 45.421875 -51.125 C 45.421875 -50.9375 45.421875 -50.765625 45.328125 -50.578125 C 45.046875 -49.1875 44.859375 -48.09375 44.5 -46.703125 C 43.109375 -40.71875 41.828125 -34.734375 40.4375 -28.828125 C 40.078125 -27 39.890625 -26.90625 38.140625 -26.8125 Z M 37.5 -26.8125 "/></g></g></g><g fill="#ff3131" fill-opacity="1"><g transform="translate(76.959732, 207.191049)"><g><path d="M -0.28125 1.5625 C 0.28125 1.5625 0.734375 1.296875 1.015625 0.828125 C 1.65625 -0.1875 2.21875 -1.015625 2.671875 -2.03125 C 3.5 -3.59375 4.234375 -5.0625 4.96875 -6.546875 C 5.625 -8.015625 6.359375 -9.484375 7.09375 -10.96875 C 8.203125 -13.078125 9.484375 -15.109375 11.234375 -16.859375 C 11.609375 -17.3125 11.96875 -17.78125 12.8125 -17.78125 C 13.078125 -17.40625 13.265625 -17.046875 13.453125 -16.671875 C 13.640625 -16.3125 13.90625 -15.9375 14.1875 -15.5625 C 15.203125 -14.1875 16.390625 -13.546875 17.96875 -13.546875 C 20.546875 -13.546875 24.40625 -16.578125 26.15625 -18.328125 C 26.4375 -18.609375 26.71875 -18.984375 27 -19.53125 C 27.171875 -19.90625 27.078125 -20.265625 26.71875 -20.640625 C 26.4375 -20.8125 26.25 -20.90625 25.984375 -20.90625 C 25.796875 -20.90625 25.703125 -20.90625 25.609375 -20.8125 C 25.15625 -20.546875 24.78125 -20.265625 24.40625 -19.90625 C 22.84375 -18.609375 19.625 -15.9375 17.96875 -15.9375 C 17.140625 -15.9375 16.390625 -16.484375 15.75 -17.59375 C 15.5625 -17.875 15.390625 -18.234375 15.296875 -18.703125 C 15.109375 -19.0625 14.921875 -19.4375 14.734375 -19.71875 C 14.28125 -20.453125 13.734375 -20.8125 12.984375 -20.8125 C 12.625 -20.8125 12.25 -20.734375 11.890625 -20.546875 C 9.03125 -18.796875 6.8125 -15.65625 5.34375 -12.8125 L 1.75 -5.53125 L 1.65625 -5.625 L 1.75 -5.625 C 1.296875 -6.640625 1.5625 -7.546875 1.84375 -8.5625 C 2.578125 -11.328125 3.59375 -14.1875 4.796875 -17.046875 C 5.625 -18.890625 6.453125 -20.734375 7.1875 -22.578125 C 7.46875 -23.3125 7.640625 -23.953125 7.640625 -24.59375 C 7.734375 -25.0625 7.546875 -25.328125 7 -25.515625 L 6.71875 -25.515625 C 6.359375 -25.515625 6.078125 -25.421875 5.890625 -25.25 C 5.625 -24.875 5.4375 -24.40625 5.15625 -23.953125 C 1.9375 -16.578125 -0.640625 -10.5 -1.84375 -2.296875 C -1.9375 -1.84375 -1.9375 -1.46875 -1.9375 -1.109375 C -1.84375 -0.640625 -1.84375 -0.28125 -1.84375 0.09375 C -1.75 0.828125 -1.375 1.296875 -0.734375 1.46875 C -0.640625 1.46875 -0.546875 1.46875 -0.546875 1.5625 C -0.453125 1.5625 -0.375 1.5625 -0.28125 1.5625 Z M -0.28125 1.5625 "/></g></g></g><g fill="#ff3131" fill-opacity="1"><g transform="translate(99.438765, 207.191049)"><g><path d="M 0.453125 -7.921875 C 1.65625 -7.921875 3.21875 -9.21875 4.046875 -9.953125 C 6.359375 -12.0625 8.390625 -14.28125 10.5 -16.765625 C 10.78125 -17.046875 11.140625 -17.40625 11.421875 -17.78125 C 11.703125 -18.15625 12.15625 -18.421875 12.8125 -18.703125 C 12.15625 -16.21875 11.609375 -13.8125 11.609375 -11.328125 C 11.609375 -9.578125 12.34375 -8.65625 13.90625 -8.65625 C 14.28125 -8.65625 14.5625 -8.65625 14.734375 -8.75 C 18.609375 -9.390625 25.15625 -15.5625 27.828125 -18.234375 C 27.90625 -18.328125 28.09375 -18.515625 28.1875 -18.609375 C 28.28125 -18.703125 28.28125 -18.796875 28.375 -18.890625 C 28.5625 -19.53125 28.46875 -19.984375 28 -20.265625 C 27.828125 -20.453125 27.640625 -20.546875 27.359375 -20.546875 C 27.265625 -20.546875 27.171875 -20.453125 26.90625 -20.359375 C 26.625 -20.171875 26.34375 -19.984375 26.15625 -19.8125 C 25.890625 -19.53125 25.609375 -19.34375 25.328125 -19.0625 C 24.5 -18.421875 23.765625 -17.78125 23.125 -17.140625 C 22.390625 -16.484375 21.65625 -15.75 20.8125 -15.109375 C 19.71875 -14.09375 18.515625 -13.359375 17.40625 -12.625 C 16.578125 -12.15625 15.75 -11.796875 14.921875 -11.421875 C 14.828125 -11.328125 14.734375 -11.328125 14.5625 -11.328125 C 14.1875 -11.328125 14 -11.609375 14 -12.15625 C 14 -16.125 16.859375 -22.84375 18.609375 -26.34375 C 18.796875 -26.8125 18.984375 -27.171875 19.25 -27.640625 C 19.4375 -28 19.625 -28.375 19.8125 -28.828125 C 20.078125 -29.671875 19.984375 -30.3125 19.34375 -30.671875 C 19.0625 -30.765625 18.890625 -30.859375 18.796875 -30.859375 C 18.515625 -30.859375 18.15625 -30.671875 17.6875 -30.21875 C 17.40625 -29.9375 17.234375 -29.578125 17.046875 -29.296875 C 16.765625 -28.921875 16.578125 -28.5625 16.3125 -28.28125 C 15.75 -27.546875 15.203125 -26.8125 14.734375 -26.078125 C 14.1875 -25.328125 13.640625 -24.59375 13.078125 -23.953125 C 12.71875 -23.484375 12.4375 -23.21875 12.25 -23.21875 C 12.15625 -23.21875 11.890625 -23.40625 11.421875 -23.671875 C 10.5 -24.40625 9.578125 -24.78125 8.65625 -24.78125 C 7.640625 -24.78125 6.640625 -24.40625 5.625 -23.578125 C 4.96875 -23.125 4.515625 -22.75 4.234375 -22.390625 C 1.46875 -19.625 -1.5625 -14.1875 -1.5625 -10.140625 C -1.46875 -8.65625 -0.734375 -7.921875 0.453125 -7.921875 Z M 1.296875 -11.234375 C 1.296875 -11.328125 1.296875 -11.328125 1.203125 -11.328125 L 1.109375 -11.421875 C 1.84375 -15.390625 3.6875 -18.703125 6.546875 -21.1875 C 7 -21.65625 8.109375 -22.296875 8.75 -22.296875 C 9.21875 -22.296875 9.578125 -22.109375 10.046875 -21.828125 C 10.5 -21.5625 10.59375 -21.09375 10.40625 -20.546875 C 10.3125 -20.265625 10.140625 -20.171875 10.046875 -20.078125 C 7.546875 -17.046875 5.0625 -14 2.125 -11.515625 C 1.9375 -11.328125 1.65625 -11.234375 1.296875 -11.234375 Z M 1.296875 -11.234375 "/></g></g></g><g fill="#ff3131" fill-opacity="1"><g transform="translate(123.299716, 207.191049)"><g><path d="M -0.453125 -0.921875 C -0.09375 -0.921875 0.1875 -1.015625 0.453125 -1.203125 C 1.015625 -1.65625 1.46875 -2.125 1.75 -2.765625 C 2.03125 -3.3125 2.296875 -3.875 2.578125 -4.421875 C 5.4375 -10.21875 8.9375 -15.75 13.734375 -20.078125 C 13.90625 -20.265625 14.09375 -20.359375 14.375 -20.359375 C 14.640625 -20.359375 14.921875 -20.078125 15.015625 -19.625 C 15.109375 -18.703125 15.296875 -17.78125 15.390625 -16.953125 C 15.484375 -16.03125 15.5625 -15.109375 15.65625 -14.1875 C 15.75 -13.078125 16.03125 -11.96875 16.671875 -10.78125 C 17.40625 -9.484375 18.421875 -8.84375 19.625 -8.84375 C 19.71875 -8.84375 19.90625 -8.84375 20.078125 -8.9375 C 20.171875 -8.9375 20.359375 -8.9375 20.453125 -8.9375 C 21.828125 -9.21875 23.03125 -9.859375 24.140625 -10.875 C 25.15625 -11.796875 30.578125 -16.671875 31.59375 -17.6875 C 31.96875 -18.0625 32.25 -18.515625 32.421875 -18.984375 C 32.609375 -19.4375 32.515625 -19.90625 32.0625 -20.265625 C 31.875 -20.453125 31.6875 -20.546875 31.421875 -20.546875 C 31.140625 -20.546875 30.953125 -20.453125 30.765625 -20.265625 C 30.578125 -20.171875 30.40625 -19.90625 30.125 -19.625 C 29.84375 -19.34375 29.203125 -18.703125 28.1875 -17.875 C 27.359375 -17.140625 26.53125 -16.390625 25.796875 -15.65625 C 24.96875 -14.828125 24.234375 -14.09375 23.40625 -13.359375 C 22.390625 -12.53125 21.46875 -11.796875 20.359375 -11.421875 C 20.265625 -11.421875 20.171875 -11.421875 20.171875 -11.421875 C 20.078125 -11.328125 19.984375 -11.328125 19.90625 -11.328125 C 19.34375 -11.328125 18.984375 -11.609375 18.796875 -12.0625 C 18.328125 -12.890625 18.0625 -13.8125 17.96875 -14.921875 C 17.875 -15.65625 17.78125 -16.390625 17.78125 -17.140625 C 17.6875 -17.875 17.59375 -18.609375 17.5 -19.4375 C 17.234375 -21 16.953125 -23.21875 14.828125 -23.21875 C 11.234375 -23.21875 4.140625 -12.625 2.578125 -9.484375 C 2.296875 -10.140625 2.21875 -10.6875 2.484375 -11.234375 C 2.671875 -11.796875 2.859375 -12.34375 3.046875 -12.890625 C 3.96875 -15.203125 4.875 -17.59375 5.796875 -19.984375 C 6.640625 -22.296875 7.546875 -24.6875 8.46875 -27 L 9.03125 -28.09375 C 9.296875 -28.75 9.21875 -29.296875 8.5625 -29.671875 C 8.296875 -29.75 8.109375 -29.84375 8.015625 -29.84375 C 7 -29.84375 6.171875 -27.359375 5.625 -26.53125 C 4.796875 -24.234375 3.875 -21.921875 3.046875 -19.625 C 2.21875 -17.3125 1.296875 -15.015625 0.453125 -12.71875 C -0.546875 -9.671875 -1.46875 -6.640625 -1.84375 -3.40625 C -1.84375 -2.859375 -1.84375 -2.484375 -1.75 -2.21875 C -1.65625 -1.375 -1.203125 -0.921875 -0.453125 -0.921875 Z M -0.453125 -0.921875 "/></g></g></g><g fill="#ff3131" fill-opacity="1"><g transform="translate(151.214268, 207.191049)"><g><path d="M 5.34375 32.609375 C 8.5625 32.609375 14 19.8125 15.109375 16.578125 C 15.75 14.921875 16.3125 13.265625 16.859375 11.609375 C 17.40625 9.953125 17.96875 8.296875 18.609375 6.640625 C 19.8125 2.859375 28.828125 -6.078125 31.875 -8.84375 C 35.09375 -11.703125 38.046875 -14.28125 41.09375 -17.140625 C 41.265625 -17.3125 41.453125 -17.5 41.734375 -17.78125 C 41.921875 -17.96875 42.09375 -18.15625 42.28125 -18.421875 C 42.65625 -18.890625 42.65625 -19.34375 42.28125 -19.8125 C 42.09375 -20.078125 41.828125 -20.265625 41.453125 -20.265625 C 41.359375 -20.265625 41.1875 -20.171875 40.90625 -20.078125 L 39.515625 -18.984375 C 34.09375 -14.28125 28.828125 -9.484375 23.953125 -4.328125 C 23.671875 -4.046875 23.40625 -3.6875 23.21875 -3.40625 C 22.9375 -3.125 22.578125 -2.953125 22.109375 -2.859375 C 21.828125 -3.5 22.015625 -3.96875 22.296875 -4.609375 C 23.859375 -10.5 25.515625 -16.3125 27.640625 -22.203125 C 27.90625 -22.84375 28.09375 -23.578125 28.28125 -24.328125 C 28.46875 -25.0625 28.65625 -25.796875 28.828125 -26.53125 C 28.921875 -27.171875 28.75 -27.734375 28.09375 -28.09375 C 27.90625 -28.1875 27.640625 -28.28125 27.359375 -28.28125 C 27 -28.28125 26.71875 -28.1875 26.4375 -27.90625 C 25.796875 -27.453125 25.25 -26.90625 24.6875 -26.34375 C 24.046875 -25.796875 23.484375 -25.25 22.84375 -24.6875 C 22.75 -24.59375 22.578125 -24.40625 22.484375 -24.234375 C 22.296875 -24.046875 22.015625 -23.953125 21.734375 -23.953125 C 21.5625 -23.953125 21.375 -23.953125 21.28125 -24.046875 C 21.28125 -27.640625 18.421875 -29.484375 15.203125 -29.484375 C 13.734375 -29.484375 12.34375 -29.015625 10.96875 -28.375 C 5.4375 -25.515625 1.9375 -21.09375 0.375 -15.109375 C 0 -13.359375 -0.1875 -11.796875 0.1875 -10.046875 C 0.640625 -7.921875 2.03125 -7.375 3.96875 -7.375 C 6.171875 -7.546875 11.140625 -11.0625 12.984375 -12.625 C 14.734375 -14 16.390625 -15.484375 18.0625 -16.953125 C 19.625 -18.421875 21.28125 -19.90625 22.9375 -21.375 C 23.21875 -21.65625 23.484375 -22.015625 23.765625 -22.296875 C 24.046875 -22.578125 24.40625 -22.84375 24.875 -22.9375 C 25.15625 -22.109375 24.96875 -21.65625 24.6875 -21 C 23.484375 -17.3125 22.390625 -13.640625 21.375 -10.046875 C 20.265625 -6.453125 19.15625 -2.765625 18.0625 0.921875 C 17.59375 2.671875 16.671875 4.234375 15.484375 5.71875 C 10.875 11.234375 5.25 19.34375 3.5 26.4375 C 3.125 28 3.125 29.578125 3.40625 30.953125 C 3.78125 32.0625 4.421875 32.609375 5.34375 32.609375 Z M 5.984375 28.828125 C 5.890625 28.75 5.890625 28.75 5.796875 28.65625 C 5.71875 28.5625 5.625 28.5625 5.625 28.46875 C 5.71875 28.1875 5.71875 28 5.71875 27.734375 C 5.71875 27.453125 5.796875 27.265625 5.890625 27 C 6.90625 22.578125 10.3125 16.3125 13.171875 12.8125 C 13.453125 12.890625 13.640625 13.078125 13.640625 13.265625 C 13.640625 13.453125 13.640625 13.640625 13.546875 13.734375 C 11.796875 18.796875 9.671875 23.484375 6.8125 28 C 6.71875 28.28125 6.546875 28.46875 6.265625 28.75 C 6.171875 28.75 6.171875 28.75 6.171875 28.828125 C 6.078125 28.828125 6.078125 28.828125 5.984375 28.828125 Z M 3.59375 -9.765625 C 2.953125 -9.765625 2.578125 -10.21875 2.484375 -11.0625 C 2.390625 -12.0625 2.390625 -12.984375 2.578125 -13.734375 C 3.78125 -19.53125 7.09375 -23.765625 12.34375 -26.34375 C 13.359375 -26.71875 14.09375 -27 15.109375 -27 C 16.953125 -27 18.609375 -26.34375 18.890625 -24.234375 L 18.890625 -22.65625 C 19.0625 -21.65625 18.609375 -20.640625 17.40625 -19.625 C 14.46875 -17.046875 11.515625 -14.375 8.296875 -12.15625 C 7.09375 -11.328125 5.796875 -10.59375 4.421875 -9.953125 C 4.046875 -9.859375 3.78125 -9.765625 3.59375 -9.765625 Z M 3.59375 -9.765625 "/></g></g></g><g fill="#ff3131" fill-opacity="1"><g transform="translate(189.170664, 207.191049)"><g><path d="M 3.875 -4.609375 C 4.703125 -4.609375 5.625 -4.875 6.453125 -5.34375 C 7.640625 -6.171875 8.5625 -7.1875 9.21875 -8.5625 C 10.046875 -10.3125 10.21875 -12.0625 9.859375 -13.8125 C 9.578125 -15.390625 9.484375 -15.390625 11.234375 -15.65625 C 13.171875 -15.84375 14.921875 -16.3125 16.671875 -16.953125 C 18.328125 -17.59375 20.078125 -18.15625 21.828125 -18.796875 C 22.65625 -19.0625 22.84375 -19.625 22.578125 -20.265625 C 22.296875 -20.734375 21.828125 -21 21.375 -21 L 19.90625 -20.640625 C 19.0625 -20.359375 18.234375 -19.984375 17.40625 -19.71875 C 16.578125 -19.4375 15.65625 -19.0625 14.828125 -18.796875 C 13.078125 -18.234375 11.421875 -17.96875 9.671875 -17.96875 L 6.8125 -17.96875 C 6.171875 -17.875 5.625 -17.234375 5.890625 -16.578125 C 6.171875 -15.9375 6.453125 -15.390625 6.8125 -14.734375 C 8.203125 -12.625 7.734375 -10.6875 6.546875 -8.75 C 5.71875 -7.28125 4.796875 -7.09375 3.3125 -7.09375 C 2.125 -7.375 1.46875 -8.46875 1.46875 -10.21875 C 1.46875 -11.234375 1.5625 -12.15625 1.84375 -12.890625 C 2.21875 -14.46875 2.859375 -16.03125 3.6875 -17.59375 C 4.703125 -19.15625 5.53125 -20.734375 7.640625 -21.09375 C 8.296875 -21.1875 8.296875 -21.65625 8.203125 -22.296875 C 8.109375 -22.75 7.828125 -23.125 7.1875 -23.21875 C 6.71875 -23.21875 6.359375 -23.125 5.984375 -22.9375 C 2.390625 -21.5625 -0.640625 -14.640625 -0.921875 -10.875 C -1.015625 -10.140625 -0.921875 -9.296875 -0.734375 -8.46875 C -0.28125 -5.984375 1.65625 -4.609375 3.875 -4.609375 Z M 3.875 -4.609375 "/></g></g></g><g fill="#ff3131" fill-opacity="1"><g transform="translate(207.227604, 207.191049)"><g/></g></g><g fill="#ff3131" fill-opacity="1"><g transform="translate(242.235928, 207.191049)"><g><path d="M 12.8125 1.75 C 19.15625 1.75 28.75 -3.6875 33.25 -7.734375 C 36.84375 -10.78125 39.984375 -14.28125 43.015625 -17.875 C 43.109375 -18.0625 43.296875 -18.234375 43.390625 -18.421875 C 43.484375 -18.515625 43.671875 -18.703125 43.765625 -18.890625 C 44.03125 -19.4375 44.03125 -19.90625 43.578125 -20.265625 C 43.390625 -20.453125 43.109375 -20.546875 42.84375 -20.546875 C 42.65625 -20.546875 42.46875 -20.453125 42.1875 -20.359375 C 41.921875 -20.078125 41.546875 -19.71875 41.265625 -19.4375 C 41 -19.0625 40.625 -18.703125 40.34375 -18.421875 C 33.90625 -10.78125 27.171875 -4.796875 17.6875 -1.5625 C 15.9375 -0.921875 14.375 -0.640625 12.984375 -0.640625 C 9.03125 -0.734375 5.984375 -2.21875 4.140625 -5.796875 C 2.390625 -9.03125 2.03125 -12.34375 2.390625 -15.75 C 4.140625 -30.578125 10.6875 -45.609375 24.046875 -52.875 C 25.796875 -53.703125 27.453125 -54.359375 29.109375 -54.8125 C 29.75 -54.90625 30.21875 -55 30.671875 -55 C 32.984375 -55 34.171875 -53.609375 34.359375 -50.859375 C 34.546875 -49.65625 34.453125 -48.359375 34 -46.984375 C 32.609375 -41.828125 28.921875 -36.578125 25.703125 -32.421875 C 25.25 -31.96875 25.15625 -31.59375 25.328125 -31.140625 C 25.421875 -30.953125 25.703125 -30.859375 25.984375 -30.859375 C 26.625 -30.859375 27.171875 -31.328125 27.546875 -31.96875 C 31.234375 -36.671875 35 -41.640625 36.390625 -47.53125 C 36.84375 -49.28125 36.84375 -50.859375 36.484375 -52.328125 C 35.75 -56.015625 33.8125 -57.390625 30.125 -57.390625 C 21.921875 -56.46875 13.078125 -48.734375 8.84375 -41.828125 C 4.609375 -35.375 0 -22.578125 0 -14.734375 C -0.09375 -10.21875 0.640625 -6.640625 2.765625 -3.40625 C 4.96875 0.1875 8.75 1.75 12.8125 1.75 Z M 12.8125 1.75 "/></g></g></g><g fill="#ff3131" fill-opacity="1"><g transform="translate(281.574241, 207.191049)"><g><path d="M 0.453125 -7.921875 C 1.65625 -7.921875 3.21875 -9.21875 4.046875 -9.953125 C 6.359375 -12.0625 8.390625 -14.28125 10.5 -16.765625 C 10.78125 -17.046875 11.140625 -17.40625 11.421875 -17.78125 C 11.703125 -18.15625 12.15625 -18.421875 12.8125 -18.703125 C 12.15625 -16.21875 11.609375 -13.8125 11.609375 -11.328125 C 11.609375 -9.578125 12.34375 -8.65625 13.90625 -8.65625 C 14.28125 -8.65625 14.5625 -8.65625 14.734375 -8.75 C 18.609375 -9.390625 25.15625 -15.5625 27.828125 -18.234375 C 27.90625 -18.328125 28.09375 -18.515625 28.1875 -18.609375 C 28.28125 -18.703125 28.28125 -18.796875 28.375 -18.890625 C 28.5625 -19.53125 28.46875 -19.984375 28 -20.265625 C 27.828125 -20.453125 27.640625 -20.546875 27.359375 -20.546875 C 27.265625 -20.546875 27.171875 -20.453125 26.90625 -20.359375 C 26.625 -20.171875 26.34375 -19.984375 26.15625 -19.8125 C 25.890625 -19.53125 25.609375 -19.34375 25.328125 -19.0625 C 24.5 -18.421875 23.765625 -17.78125 23.125 -17.140625 C 22.390625 -16.484375 21.65625 -15.75 20.8125 -15.109375 C 19.71875 -14.09375 18.515625 -13.359375 17.40625 -12.625 C 16.578125 -12.15625 15.75 -11.796875 14.921875 -11.421875 C 14.828125 -11.328125 14.734375 -11.328125 14.5625 -11.328125 C 14.1875 -11.328125 14 -11.609375 14 -12.15625 C 14 -16.125 16.859375 -22.84375 18.609375 -26.34375 C 18.796875 -26.8125 18.984375 -27.171875 19.25 -27.640625 C 19.4375 -28 19.625 -28.375 19.8125 -28.828125 C 20.078125 -29.671875 19.984375 -30.3125 19.34375 -30.671875 C 19.0625 -30.765625 18.890625 -30.859375 18.796875 -30.859375 C 18.515625 -30.859375 18.15625 -30.671875 17.6875 -30.21875 C 17.40625 -29.9375 17.234375 -29.578125 17.046875 -29.296875 C 16.765625 -28.921875 16.578125 -28.5625 16.3125 -28.28125 C 15.75 -27.546875 15.203125 -26.8125 14.734375 -26.078125 C 14.1875 -25.328125 13.640625 -24.59375 13.078125 -23.953125 C 12.71875 -23.484375 12.4375 -23.21875 12.25 -23.21875 C 12.15625 -23.21875 11.890625 -23.40625 11.421875 -23.671875 C 10.5 -24.40625 9.578125 -24.78125 8.65625 -24.78125 C 7.640625 -24.78125 6.640625 -24.40625 5.625 -23.578125 C 4.96875 -23.125 4.515625 -22.75 4.234375 -22.390625 C 1.46875 -19.625 -1.5625 -14.1875 -1.5625 -10.140625 C -1.46875 -8.65625 -0.734375 -7.921875 0.453125 -7.921875 Z M 1.296875 -11.234375 C 1.296875 -11.328125 1.296875 -11.328125 1.203125 -11.328125 L 1.109375 -11.421875 C 1.84375 -15.390625 3.6875 -18.703125 6.546875 -21.1875 C 7 -21.65625 8.109375 -22.296875 8.75 -22.296875 C 9.21875 -22.296875 9.578125 -22.109375 10.046875 -21.828125 C 10.5 -21.5625 10.59375 -21.09375 10.40625 -20.546875 C 10.3125 -20.265625 10.140625 -20.171875 10.046875 -20.078125 C 7.546875 -17.046875 5.0625 -14 2.125 -11.515625 C 1.9375 -11.328125 1.65625 -11.234375 1.296875 -11.234375 Z M 1.296875 -11.234375 "/></g></g></g><g fill="#ff3131" fill-opacity="1"><g transform="translate(305.435192, 207.191049)"><g><path d="M 1.46875 25.0625 C 3.96875 25.0625 5.71875 20.359375 5.984375 17.96875 C 6.265625 16.671875 6.453125 15.390625 6.546875 14.09375 C 6.640625 12.8125 6.71875 11.515625 6.8125 10.21875 C 7.28125 4.046875 6.265625 -2.125 3.96875 -8.109375 L 3.40625 -9.484375 C 3.3125 -9.953125 3.5 -10.21875 3.875 -10.5 C 4.515625 -10.875 5.34375 -11.140625 6.171875 -11.328125 C 7.921875 -11.96875 9.390625 -12.625 11.140625 -13.453125 C 12.890625 -14.375 14.640625 -15.296875 16.390625 -16.21875 C 18.15625 -17.046875 19.90625 -17.96875 21.65625 -18.796875 C 21.921875 -18.984375 22.296875 -19.15625 22.578125 -19.34375 C 22.84375 -19.4375 23.21875 -19.625 23.484375 -19.8125 C 23.953125 -20.078125 24.140625 -20.546875 23.953125 -21.09375 C 23.859375 -21.65625 23.484375 -21.921875 22.84375 -21.921875 C 22.75 -21.921875 22.75 -21.921875 22.75 -21.921875 C 22.65625 -21.828125 22.65625 -21.828125 22.578125 -21.828125 C 21.828125 -21.5625 21.09375 -21.28125 20.359375 -20.90625 L 10.40625 -15.84375 C 8.84375 -15.015625 7.1875 -14.1875 5.4375 -13.734375 L 5.15625 -13.734375 C 4.875 -13.734375 4.703125 -13.734375 4.609375 -13.8125 C 4.140625 -14.09375 4.234375 -14.5625 4.515625 -14.921875 C 4.796875 -15.5625 5.15625 -16.21875 5.625 -17.046875 C 6.453125 -18.421875 7.46875 -19.984375 8.46875 -21.65625 C 13.078125 -28.828125 22.65625 -45.234375 23.671875 -53.53125 C 23.953125 -54.625 23.859375 -55.546875 22.75 -56.203125 C 22.65625 -56.28125 22.484375 -56.28125 22.203125 -56.28125 C 20.078125 -56.28125 16.859375 -51.21875 14.828125 -47.625 C 12.890625 -44.125 10.140625 -38.328125 9.484375 -36.671875 C 3.125 -20.8125 -2.03125 -4.515625 -2.765625 12.71875 C -2.859375 14.828125 -2.578125 16.953125 -2.296875 19.0625 C -2.03125 21.09375 -0.734375 25.0625 1.46875 25.0625 Z M 1.65625 22.109375 C 1.46875 22.109375 1.296875 22.015625 1.109375 21.734375 C 0.375 20.359375 0.1875 19.0625 -0.09375 17.6875 C -0.546875 14.09375 -0.375 10.40625 0.09375 6.8125 C 0.453125 2.859375 0.921875 -1.109375 2.03125 -4.796875 C 2.765625 -4.328125 2.953125 -3.78125 3.046875 -3.3125 C 3.78125 -0.734375 4.328125 1.84375 4.421875 4.703125 C 4.703125 8.84375 4.421875 13.078125 3.78125 17.234375 C 3.5 18.984375 3.21875 20.359375 2.21875 21.734375 C 2.125 22.015625 1.9375 22.109375 1.65625 22.109375 Z M 7.828125 -24.328125 L 7.828125 -24.5 C 7.921875 -24.40625 8.015625 -24.328125 8.109375 -24.328125 C 7.640625 -24.96875 7.828125 -25.609375 8.109375 -26.25 C 10.96875 -34.453125 14 -42.375 18.703125 -49.75 C 18.984375 -50.203125 19.34375 -50.765625 19.625 -51.40625 C 19.90625 -51.953125 20.359375 -52.328125 21.09375 -52.515625 C 21.375 -51.859375 21.375 -51.21875 21.09375 -50.671875 C 20.8125 -50.109375 20.640625 -49.5625 20.453125 -49.015625 C 17.140625 -40.265625 12.984375 -32.15625 8.109375 -24.328125 Z M 7.828125 -24.328125 "/></g></g></g><g fill="#ff3131" fill-opacity="1"><g transform="translate(324.874025, 207.191049)"><g><path d="M 4.328125 -3.875 C 10.6875 -3.875 20.359375 -13.265625 24.78125 -17.96875 C 25.15625 -18.328125 25.421875 -18.609375 25.515625 -18.890625 C 25.796875 -19.34375 25.703125 -19.8125 25.25 -20.265625 C 25.0625 -20.453125 24.875 -20.546875 24.59375 -20.546875 C 24.40625 -20.546875 24.140625 -20.453125 23.859375 -20.265625 C 23.578125 -19.984375 23.3125 -19.71875 23.03125 -19.4375 C 22.75 -19.15625 22.390625 -18.890625 22.109375 -18.609375 C 21 -17.59375 19.90625 -16.578125 18.890625 -15.5625 C 17.78125 -14.5625 16.671875 -13.453125 15.5625 -12.4375 C 12.890625 -9.953125 8.65625 -7 4.96875 -6.265625 C 3.21875 -6.265625 2.21875 -6.265625 1.84375 -8.390625 C 1.375 -9.578125 1.296875 -10.59375 1.5625 -11.609375 C 1.65625 -12.0625 1.9375 -12.34375 2.296875 -12.4375 C 6.71875 -12.890625 12.53125 -18.328125 13.265625 -22.84375 C 13.546875 -24.96875 12.34375 -26.25 10.5 -26.25 C 10.40625 -26.25 10.21875 -26.25 10.140625 -26.25 C 10.046875 -26.15625 9.859375 -26.15625 9.765625 -26.15625 C 4.875 -25.421875 1.296875 -18.984375 -0.28125 -14.640625 C -0.640625 -13.265625 -1.015625 -11.96875 -0.921875 -10.40625 C -1.015625 -9.390625 -0.734375 -8.296875 -0.375 -7.28125 C 0.28125 -4.96875 1.84375 -3.875 4.328125 -3.875 Z M 3.5 -15.203125 C 3.40625 -15.109375 3.21875 -15.203125 2.953125 -15.296875 C 2.859375 -15.296875 2.765625 -15.484375 2.765625 -15.75 C 3.78125 -18.609375 6.90625 -23.21875 9.953125 -23.671875 C 10.40625 -23.765625 10.6875 -23.578125 10.78125 -22.9375 C 10.78125 -19.984375 5.890625 -16.484375 3.5 -15.203125 Z M 3.5 -15.203125 "/></g></g></g><g fill="#12110f" fill-opacity="1"><g transform="translate(80.903903, 139.741554)"><g><path d="M 2.5 -2.703125 L 2.171875 -1.71875 C 2.140625 -1.625 2.109375 -1.515625 2.078125 -1.390625 C 2.046875 -1.265625 2.03125 -1.15625 2.03125 -1.0625 C 2.03125 -0.976562 2.046875 -0.910156 2.078125 -0.859375 C 2.109375 -0.804688 2.144531 -0.757812 2.1875 -0.71875 C 2.238281 -0.6875 2.296875 -0.660156 2.359375 -0.640625 C 2.421875 -0.617188 2.488281 -0.609375 2.5625 -0.609375 L 3.046875 -0.609375 L 3.046875 0 L 0.046875 0 L 0.046875 -0.609375 L 0.1875 -0.609375 C 0.289062 -0.609375 0.382812 -0.617188 0.46875 -0.640625 C 0.550781 -0.671875 0.628906 -0.710938 0.703125 -0.765625 C 0.773438 -0.828125 0.84375 -0.910156 0.90625 -1.015625 C 0.96875 -1.128906 1.035156 -1.273438 1.109375 -1.453125 L 3.609375 -8.21875 L 5.1875 -8.21875 L 7.59375 -1.4375 C 7.644531 -1.28125 7.703125 -1.144531 7.765625 -1.03125 C 7.828125 -0.925781 7.894531 -0.84375 7.96875 -0.78125 C 8.039062 -0.71875 8.117188 -0.671875 8.203125 -0.640625 C 8.285156 -0.617188 8.375 -0.609375 8.46875 -0.609375 L 8.671875 -0.609375 L 8.671875 0 L 4.875 0 L 4.875 -0.609375 L 5.3125 -0.609375 C 5.375 -0.609375 5.429688 -0.613281 5.484375 -0.625 C 5.546875 -0.644531 5.597656 -0.671875 5.640625 -0.703125 C 5.691406 -0.742188 5.734375 -0.789062 5.765625 -0.84375 C 5.796875 -0.90625 5.8125 -0.976562 5.8125 -1.0625 C 5.8125 -1.15625 5.800781 -1.242188 5.78125 -1.328125 C 5.757812 -1.410156 5.738281 -1.484375 5.71875 -1.546875 L 5.3125 -2.703125 Z M 4.46875 -5.296875 C 4.425781 -5.429688 4.382812 -5.566406 4.34375 -5.703125 C 4.300781 -5.847656 4.257812 -5.992188 4.21875 -6.140625 C 4.175781 -6.296875 4.132812 -6.445312 4.09375 -6.59375 C 4.050781 -6.75 4.015625 -6.890625 3.984375 -7.015625 C 3.953125 -6.898438 3.910156 -6.773438 3.859375 -6.640625 C 3.816406 -6.503906 3.769531 -6.363281 3.71875 -6.21875 C 3.675781 -6.070312 3.628906 -5.925781 3.578125 -5.78125 C 3.523438 -5.632812 3.476562 -5.492188 3.4375 -5.359375 L 2.75 -3.40625 L 5.078125 -3.40625 Z M 4.46875 -5.296875 "/></g></g></g><g fill="#12110f" fill-opacity="1"><g transform="translate(94.52776, 139.741554)"><g><path d="M 8.421875 -7.609375 L 7.921875 -7.609375 C 7.835938 -7.609375 7.757812 -7.597656 7.6875 -7.578125 C 7.625 -7.566406 7.5625 -7.535156 7.5 -7.484375 C 7.445312 -7.429688 7.40625 -7.351562 7.375 -7.25 C 7.351562 -7.15625 7.34375 -7.023438 7.34375 -6.859375 L 7.34375 -2.375 C 7.34375 -1.988281 7.285156 -1.640625 7.171875 -1.328125 C 7.054688 -1.023438 6.878906 -0.765625 6.640625 -0.546875 C 6.410156 -0.335938 6.113281 -0.175781 5.75 -0.0625 C 5.394531 0.0507812 4.960938 0.109375 4.453125 0.109375 C 3.953125 0.109375 3.503906 0.0625 3.109375 -0.03125 C 2.710938 -0.125 2.378906 -0.273438 2.109375 -0.484375 C 1.835938 -0.691406 1.628906 -0.960938 1.484375 -1.296875 C 1.335938 -1.628906 1.265625 -2.03125 1.265625 -2.5 L 1.265625 -6.90625 C 1.265625 -7.0625 1.25 -7.1875 1.21875 -7.28125 C 1.1875 -7.375 1.140625 -7.441406 1.078125 -7.484375 C 1.023438 -7.535156 0.960938 -7.566406 0.890625 -7.578125 C 0.828125 -7.597656 0.757812 -7.609375 0.6875 -7.609375 L 0.1875 -7.609375 L 0.1875 -8.21875 L 4.15625 -8.21875 L 4.15625 -7.609375 L 3.671875 -7.609375 C 3.585938 -7.609375 3.507812 -7.597656 3.4375 -7.578125 C 3.375 -7.566406 3.3125 -7.535156 3.25 -7.484375 C 3.195312 -7.429688 3.15625 -7.351562 3.125 -7.25 C 3.101562 -7.15625 3.09375 -7.023438 3.09375 -6.859375 L 3.09375 -2.421875 C 3.09375 -2.097656 3.128906 -1.828125 3.203125 -1.609375 C 3.285156 -1.390625 3.398438 -1.210938 3.546875 -1.078125 C 3.703125 -0.941406 3.882812 -0.84375 4.09375 -0.78125 C 4.300781 -0.726562 4.535156 -0.703125 4.796875 -0.703125 C 5.054688 -0.703125 5.285156 -0.734375 5.484375 -0.796875 C 5.691406 -0.867188 5.867188 -0.972656 6.015625 -1.109375 C 6.160156 -1.242188 6.269531 -1.414062 6.34375 -1.625 C 6.425781 -1.84375 6.46875 -2.097656 6.46875 -2.390625 L 6.46875 -6.90625 C 6.46875 -7.0625 6.453125 -7.1875 6.421875 -7.28125 C 6.390625 -7.375 6.347656 -7.441406 6.296875 -7.484375 C 6.242188 -7.535156 6.179688 -7.566406 6.109375 -7.578125 C 6.035156 -7.597656 5.960938 -7.609375 5.890625 -7.609375 L 5.40625 -7.609375 L 5.40625 -8.21875 L 8.421875 -8.21875 Z M 8.421875 -7.609375 "/></g></g></g><g fill="#12110f" fill-opacity="1"><g transform="translate(108.084134, 139.741554)"><g><path d="M 4.671875 -1.359375 C 4.671875 -1.191406 4.6875 -1.0625 4.71875 -0.96875 C 4.75 -0.875 4.789062 -0.796875 4.84375 -0.734375 C 4.894531 -0.679688 4.957031 -0.644531 5.03125 -0.625 C 5.101562 -0.613281 5.179688 -0.609375 5.265625 -0.609375 L 5.75 -0.609375 L 5.75 0 L 1.765625 0 L 1.765625 -0.609375 L 2.25 -0.609375 C 2.34375 -0.609375 2.421875 -0.613281 2.484375 -0.625 C 2.554688 -0.644531 2.617188 -0.679688 2.671875 -0.734375 C 2.722656 -0.796875 2.765625 -0.875 2.796875 -0.96875 C 2.828125 -1.0625 2.84375 -1.191406 2.84375 -1.359375 L 2.84375 -7.515625 L 1.921875 -7.515625 C 1.753906 -7.515625 1.609375 -7.492188 1.484375 -7.453125 C 1.367188 -7.421875 1.273438 -7.367188 1.203125 -7.296875 C 1.128906 -7.234375 1.070312 -7.148438 1.03125 -7.046875 C 1 -6.941406 0.976562 -6.828125 0.96875 -6.703125 L 0.890625 -5.984375 L 0.109375 -5.984375 L 0.171875 -8.21875 L 7.34375 -8.21875 L 7.40625 -5.984375 L 6.640625 -5.984375 L 6.546875 -6.703125 C 6.535156 -6.828125 6.507812 -6.941406 6.46875 -7.046875 C 6.4375 -7.148438 6.382812 -7.234375 6.3125 -7.296875 C 6.238281 -7.367188 6.144531 -7.421875 6.03125 -7.453125 C 5.914062 -7.492188 5.769531 -7.515625 5.59375 -7.515625 L 4.671875 -7.515625 Z M 4.671875 -1.359375 "/></g></g></g><g fill="#12110f" fill-opacity="1"><g transform="translate(120.555162, 139.741554)"><g><path d="M 5.140625 0 L 5.140625 -0.609375 L 5.625 -0.609375 C 5.707031 -0.609375 5.785156 -0.613281 5.859375 -0.625 C 5.929688 -0.644531 5.992188 -0.679688 6.046875 -0.734375 C 6.097656 -0.796875 6.140625 -0.875 6.171875 -0.96875 C 6.203125 -1.0625 6.21875 -1.191406 6.21875 -1.359375 L 6.21875 -3.9375 L 3.203125 -3.9375 L 3.203125 -1.359375 C 3.203125 -1.191406 3.21875 -1.0625 3.25 -0.96875 C 3.289062 -0.875 3.335938 -0.796875 3.390625 -0.734375 C 3.441406 -0.679688 3.5 -0.644531 3.5625 -0.625 C 3.632812 -0.613281 3.710938 -0.609375 3.796875 -0.609375 L 4.296875 -0.609375 L 4.296875 0 L 0.328125 0 L 0.328125 -0.609375 L 0.796875 -0.609375 C 0.878906 -0.609375 0.957031 -0.613281 1.03125 -0.625 C 1.101562 -0.644531 1.164062 -0.679688 1.21875 -0.734375 C 1.269531 -0.796875 1.3125 -0.875 1.34375 -0.96875 C 1.375 -1.0625 1.390625 -1.191406 1.390625 -1.359375 L 1.390625 -6.90625 C 1.390625 -7.0625 1.375 -7.179688 1.34375 -7.265625 C 1.3125 -7.359375 1.269531 -7.429688 1.21875 -7.484375 C 1.164062 -7.535156 1.101562 -7.566406 1.03125 -7.578125 C 0.957031 -7.597656 0.878906 -7.609375 0.796875 -7.609375 L 0.328125 -7.609375 L 0.328125 -8.21875 L 4.296875 -8.21875 L 4.296875 -7.609375 L 3.796875 -7.609375 C 3.710938 -7.609375 3.632812 -7.597656 3.5625 -7.578125 C 3.5 -7.566406 3.441406 -7.535156 3.390625 -7.484375 C 3.335938 -7.429688 3.289062 -7.351562 3.25 -7.25 C 3.21875 -7.15625 3.203125 -7.023438 3.203125 -6.859375 L 3.203125 -4.640625 L 6.21875 -4.640625 L 6.21875 -6.859375 C 6.21875 -7.023438 6.203125 -7.15625 6.171875 -7.25 C 6.140625 -7.351562 6.097656 -7.429688 6.046875 -7.484375 C 5.992188 -7.535156 5.929688 -7.566406 5.859375 -7.578125 C 5.785156 -7.597656 5.707031 -7.609375 5.625 -7.609375 L 5.140625 -7.609375 L 5.140625 -8.21875 L 9.109375 -8.21875 L 9.109375 -7.609375 L 8.625 -7.609375 C 8.539062 -7.609375 8.460938 -7.597656 8.390625 -7.578125 C 8.328125 -7.566406 8.265625 -7.535156 8.203125 -7.484375 C 8.148438 -7.429688 8.109375 -7.351562 8.078125 -7.25 C 8.054688 -7.15625 8.046875 -7.023438 8.046875 -6.859375 L 8.046875 -1.296875 C 8.046875 -1.148438 8.0625 -1.03125 8.09375 -0.9375 C 8.125 -0.84375 8.164062 -0.769531 8.21875 -0.71875 C 8.269531 -0.675781 8.328125 -0.644531 8.390625 -0.625 C 8.460938 -0.613281 8.539062 -0.609375 8.625 -0.609375 L 9.109375 -0.609375 L 9.109375 0 Z M 5.140625 0 "/></g></g></g><g fill="#12110f" fill-opacity="1"><g transform="translate(134.938199, 139.741554)"><g><path d="M 3.21875 -0.703125 L 5.53125 -0.703125 C 5.644531 -0.703125 5.742188 -0.722656 5.828125 -0.765625 C 5.910156 -0.804688 5.976562 -0.863281 6.03125 -0.9375 C 6.09375 -1.019531 6.140625 -1.113281 6.171875 -1.21875 C 6.210938 -1.332031 6.242188 -1.453125 6.265625 -1.578125 L 6.359375 -2.125 L 7.15625 -2.125 L 7.0625 0 L 0.328125 0 L 0.328125 -0.609375 L 0.796875 -0.609375 C 0.878906 -0.609375 0.957031 -0.613281 1.03125 -0.625 C 1.101562 -0.644531 1.164062 -0.675781 1.21875 -0.71875 C 1.269531 -0.769531 1.3125 -0.84375 1.34375 -0.9375 C 1.375 -1.03125 1.390625 -1.148438 1.390625 -1.296875 L 1.390625 -6.859375 C 1.390625 -7.023438 1.375 -7.15625 1.34375 -7.25 C 1.3125 -7.351562 1.269531 -7.429688 1.21875 -7.484375 C 1.164062 -7.535156 1.101562 -7.566406 1.03125 -7.578125 C 0.96875 -7.597656 0.890625 -7.609375 0.796875 -7.609375 L 0.328125 -7.609375 L 0.328125 -8.21875 L 6.71875 -8.21875 L 6.765625 -6.09375 L 5.953125 -6.09375 L 5.890625 -6.640625 C 5.867188 -6.921875 5.800781 -7.132812 5.6875 -7.28125 C 5.570312 -7.4375 5.394531 -7.515625 5.15625 -7.515625 L 3.21875 -7.515625 L 3.21875 -4.640625 L 5.953125 -4.640625 L 5.953125 -3.953125 L 3.21875 -3.953125 Z M 3.21875 -0.703125 "/></g></g></g><g fill="#12110f" fill-opacity="1"><g transform="translate(147.40923, 139.741554)"><g><path d="M 6.75 0 L 2.25 -6.34375 L 2.25 -1.359375 C 2.25 -1.191406 2.265625 -1.0625 2.296875 -0.96875 C 2.328125 -0.875 2.367188 -0.796875 2.421875 -0.734375 C 2.472656 -0.679688 2.535156 -0.644531 2.609375 -0.625 C 2.691406 -0.613281 2.769531 -0.609375 2.84375 -0.609375 L 3.328125 -0.609375 L 3.328125 0 L 0.328125 0 L 0.328125 -0.609375 L 0.796875 -0.609375 C 0.878906 -0.609375 0.957031 -0.613281 1.03125 -0.625 C 1.101562 -0.644531 1.164062 -0.679688 1.21875 -0.734375 C 1.269531 -0.796875 1.3125 -0.875 1.34375 -0.96875 C 1.375 -1.0625 1.390625 -1.191406 1.390625 -1.359375 L 1.390625 -6.90625 C 1.390625 -7.0625 1.375 -7.1875 1.34375 -7.28125 C 1.3125 -7.375 1.269531 -7.441406 1.21875 -7.484375 C 1.164062 -7.535156 1.101562 -7.566406 1.03125 -7.578125 C 0.957031 -7.597656 0.878906 -7.609375 0.796875 -7.609375 L 0.328125 -7.609375 L 0.328125 -8.21875 L 2.875 -8.21875 L 6.9375 -2.46875 L 6.9375 -6.90625 C 6.9375 -7.0625 6.921875 -7.1875 6.890625 -7.28125 C 6.859375 -7.375 6.816406 -7.441406 6.765625 -7.484375 C 6.710938 -7.535156 6.648438 -7.566406 6.578125 -7.578125 C 6.503906 -7.597656 6.429688 -7.609375 6.359375 -7.609375 L 5.875 -7.609375 L 5.875 -8.21875 L 8.875 -8.21875 L 8.875 -7.609375 L 8.390625 -7.609375 C 8.316406 -7.609375 8.242188 -7.597656 8.171875 -7.578125 C 8.097656 -7.566406 8.035156 -7.535156 7.984375 -7.484375 C 7.929688 -7.429688 7.890625 -7.351562 7.859375 -7.25 C 7.828125 -7.15625 7.8125 -7.023438 7.8125 -6.859375 L 7.8125 0 Z M 6.75 0 "/></g></g></g><g fill="#12110f" fill-opacity="1"><g transform="translate(161.437987, 139.741554)"><g><path d="M 4.671875 -1.359375 C 4.671875 -1.191406 4.6875 -1.0625 4.71875 -0.96875 C 4.75 -0.875 4.789062 -0.796875 4.84375 -0.734375 C 4.894531 -0.679688 4.957031 -0.644531 5.03125 -0.625 C 5.101562 -0.613281 5.179688 -0.609375 5.265625 -0.609375 L 5.75 -0.609375 L 5.75 0 L 1.765625 0 L 1.765625 -0.609375 L 2.25 -0.609375 C 2.34375 -0.609375 2.421875 -0.613281 2.484375 -0.625 C 2.554688 -0.644531 2.617188 -0.679688 2.671875 -0.734375 C 2.722656 -0.796875 2.765625 -0.875 2.796875 -0.96875 C 2.828125 -1.0625 2.84375 -1.191406 2.84375 -1.359375 L 2.84375 -7.515625 L 1.921875 -7.515625 C 1.753906 -7.515625 1.609375 -7.492188 1.484375 -7.453125 C 1.367188 -7.421875 1.273438 -7.367188 1.203125 -7.296875 C 1.128906 -7.234375 1.070312 -7.148438 1.03125 -7.046875 C 1 -6.941406 0.976562 -6.828125 0.96875 -6.703125 L 0.890625 -5.984375 L 0.109375 -5.984375 L 0.171875 -8.21875 L 7.34375 -8.21875 L 7.40625 -5.984375 L 6.640625 -5.984375 L 6.546875 -6.703125 C 6.535156 -6.828125 6.507812 -6.941406 6.46875 -7.046875 C 6.4375 -7.148438 6.382812 -7.234375 6.3125 -7.296875 C 6.238281 -7.367188 6.144531 -7.421875 6.03125 -7.453125 C 5.914062 -7.492188 5.769531 -7.515625 5.59375 -7.515625 L 4.671875 -7.515625 Z M 4.671875 -1.359375 "/></g></g></g><g fill="#12110f" fill-opacity="1"><g transform="translate(173.909018, 139.741554)"><g><path d="M 0.328125 0 L 0.328125 -0.609375 L 0.796875 -0.609375 C 0.890625 -0.609375 0.96875 -0.613281 1.03125 -0.625 C 1.101562 -0.644531 1.164062 -0.679688 1.21875 -0.734375 C 1.269531 -0.796875 1.3125 -0.875 1.34375 -0.96875 C 1.375 -1.0625 1.390625 -1.191406 1.390625 -1.359375 L 1.390625 -6.859375 C 1.390625 -7.023438 1.375 -7.15625 1.34375 -7.25 C 1.3125 -7.351562 1.269531 -7.429688 1.21875 -7.484375 C 1.164062 -7.535156 1.101562 -7.566406 1.03125 -7.578125 C 0.96875 -7.597656 0.890625 -7.609375 0.796875 -7.609375 L 0.328125 -7.609375 L 0.328125 -8.21875 L 4.296875 -8.21875 L 4.296875 -7.609375 L 3.8125 -7.609375 C 3.726562 -7.609375 3.648438 -7.597656 3.578125 -7.578125 C 3.503906 -7.566406 3.441406 -7.535156 3.390625 -7.484375 C 3.335938 -7.429688 3.296875 -7.351562 3.265625 -7.25 C 3.234375 -7.15625 3.21875 -7.023438 3.21875 -6.859375 L 3.21875 -1.359375 C 3.21875 -1.191406 3.234375 -1.0625 3.265625 -0.96875 C 3.296875 -0.875 3.335938 -0.796875 3.390625 -0.734375 C 3.441406 -0.679688 3.503906 -0.644531 3.578125 -0.625 C 3.648438 -0.613281 3.726562 -0.609375 3.8125 -0.609375 L 4.296875 -0.609375 L 4.296875 0 Z M 0.328125 0 "/></g></g></g><g fill="#12110f" fill-opacity="1"><g transform="translate(183.478293, 139.741554)"><g><path d="M 4.890625 -0.796875 C 5.171875 -0.796875 5.421875 -0.828125 5.640625 -0.890625 C 5.859375 -0.960938 6.050781 -1.050781 6.21875 -1.15625 C 6.394531 -1.257812 6.546875 -1.375 6.671875 -1.5 C 6.804688 -1.632812 6.921875 -1.769531 7.015625 -1.90625 C 7.078125 -1.851562 7.125 -1.78125 7.15625 -1.6875 C 7.195312 -1.59375 7.21875 -1.5 7.21875 -1.40625 C 7.21875 -1.238281 7.175781 -1.066406 7.09375 -0.890625 C 7.007812 -0.710938 6.863281 -0.550781 6.65625 -0.40625 C 6.457031 -0.257812 6.191406 -0.132812 5.859375 -0.03125 C 5.523438 0.0625 5.109375 0.109375 4.609375 0.109375 C 3.941406 0.109375 3.359375 0.0078125 2.859375 -0.1875 C 2.367188 -0.394531 1.957031 -0.679688 1.625 -1.046875 C 1.289062 -1.421875 1.039062 -1.867188 0.875 -2.390625 C 0.71875 -2.910156 0.640625 -3.488281 0.640625 -4.125 C 0.640625 -4.75 0.722656 -5.316406 0.890625 -5.828125 C 1.054688 -6.347656 1.304688 -6.789062 1.640625 -7.15625 C 1.972656 -7.53125 2.382812 -7.820312 2.875 -8.03125 C 3.375 -8.238281 3.953125 -8.34375 4.609375 -8.34375 C 5.046875 -8.34375 5.425781 -8.304688 5.75 -8.234375 C 6.082031 -8.160156 6.359375 -8.0625 6.578125 -7.9375 C 6.796875 -7.820312 6.957031 -7.679688 7.0625 -7.515625 C 7.175781 -7.359375 7.234375 -7.1875 7.234375 -7 C 7.234375 -6.851562 7.203125 -6.71875 7.140625 -6.59375 C 7.078125 -6.476562 6.984375 -6.375 6.859375 -6.28125 C 6.742188 -6.195312 6.59375 -6.128906 6.40625 -6.078125 C 6.226562 -6.023438 6.023438 -6 5.796875 -6 C 5.796875 -6.1875 5.773438 -6.375 5.734375 -6.5625 C 5.691406 -6.757812 5.617188 -6.929688 5.515625 -7.078125 C 5.421875 -7.234375 5.289062 -7.359375 5.125 -7.453125 C 4.96875 -7.554688 4.769531 -7.609375 4.53125 -7.609375 C 4.164062 -7.609375 3.859375 -7.53125 3.609375 -7.375 C 3.359375 -7.21875 3.15625 -6.988281 3 -6.6875 C 2.84375 -6.394531 2.726562 -6.03125 2.65625 -5.59375 C 2.59375 -5.164062 2.5625 -4.675781 2.5625 -4.125 C 2.5625 -3.570312 2.601562 -3.085938 2.6875 -2.671875 C 2.769531 -2.253906 2.90625 -1.90625 3.09375 -1.625 C 3.28125 -1.351562 3.519531 -1.144531 3.8125 -1 C 4.101562 -0.863281 4.460938 -0.796875 4.890625 -0.796875 Z M 4.890625 -0.796875 "/></g></g></g><g fill="#12110f" fill-opacity="1"><g transform="translate(196.123655, 139.741554)"><g/></g></g><g fill="#12110f" fill-opacity="1"><g transform="translate(204.067722, 139.741554)"><g><path d="M 8.421875 -4.125 C 8.421875 -3.488281 8.335938 -2.910156 8.171875 -2.390625 C 8.003906 -1.867188 7.753906 -1.421875 7.421875 -1.046875 C 7.085938 -0.679688 6.679688 -0.394531 6.203125 -0.1875 C 5.722656 0.0078125 5.164062 0.109375 4.53125 0.109375 C 3.875 0.109375 3.300781 0.0078125 2.8125 -0.1875 C 2.332031 -0.394531 1.929688 -0.679688 1.609375 -1.046875 C 1.285156 -1.421875 1.039062 -1.867188 0.875 -2.390625 C 0.71875 -2.910156 0.640625 -3.488281 0.640625 -4.125 C 0.640625 -4.769531 0.71875 -5.347656 0.875 -5.859375 C 1.039062 -6.378906 1.285156 -6.820312 1.609375 -7.1875 C 1.929688 -7.5625 2.335938 -7.847656 2.828125 -8.046875 C 3.316406 -8.242188 3.890625 -8.34375 4.546875 -8.34375 C 5.171875 -8.34375 5.722656 -8.242188 6.203125 -8.046875 C 6.679688 -7.847656 7.085938 -7.5625 7.421875 -7.1875 C 7.753906 -6.820312 8.003906 -6.378906 8.171875 -5.859375 C 8.335938 -5.335938 8.421875 -4.757812 8.421875 -4.125 Z M 2.5625 -4.125 C 2.5625 -3.570312 2.597656 -3.078125 2.671875 -2.640625 C 2.742188 -2.210938 2.859375 -1.847656 3.015625 -1.546875 C 3.171875 -1.253906 3.375 -1.03125 3.625 -0.875 C 3.875 -0.71875 4.175781 -0.640625 4.53125 -0.640625 C 4.894531 -0.640625 5.203125 -0.71875 5.453125 -0.875 C 5.703125 -1.03125 5.898438 -1.253906 6.046875 -1.546875 C 6.203125 -1.847656 6.316406 -2.210938 6.390625 -2.640625 C 6.460938 -3.078125 6.5 -3.570312 6.5 -4.125 C 6.5 -4.675781 6.460938 -5.164062 6.390625 -5.59375 C 6.316406 -6.019531 6.203125 -6.382812 6.046875 -6.6875 C 5.898438 -6.988281 5.703125 -7.21875 5.453125 -7.375 C 5.203125 -7.53125 4.898438 -7.609375 4.546875 -7.609375 C 4.191406 -7.609375 3.882812 -7.53125 3.625 -7.375 C 3.375 -7.21875 3.171875 -6.988281 3.015625 -6.6875 C 2.859375 -6.382812 2.742188 -6.019531 2.671875 -5.59375 C 2.597656 -5.164062 2.5625 -4.675781 2.5625 -4.125 Z M 2.5625 -4.125 "/></g></g></g><g fill="#12110f" fill-opacity="1"><g transform="translate(218.085231, 139.741554)"><g><path d="M 2.5 -2.703125 L 2.171875 -1.71875 C 2.140625 -1.625 2.109375 -1.515625 2.078125 -1.390625 C 2.046875 -1.265625 2.03125 -1.15625 2.03125 -1.0625 C 2.03125 -0.976562 2.046875 -0.910156 2.078125 -0.859375 C 2.109375 -0.804688 2.144531 -0.757812 2.1875 -0.71875 C 2.238281 -0.6875 2.296875 -0.660156 2.359375 -0.640625 C 2.421875 -0.617188 2.488281 -0.609375 2.5625 -0.609375 L 3.046875 -0.609375 L 3.046875 0 L 0.046875 0 L 0.046875 -0.609375 L 0.1875 -0.609375 C 0.289062 -0.609375 0.382812 -0.617188 0.46875 -0.640625 C 0.550781 -0.671875 0.628906 -0.710938 0.703125 -0.765625 C 0.773438 -0.828125 0.84375 -0.910156 0.90625 -1.015625 C 0.96875 -1.128906 1.035156 -1.273438 1.109375 -1.453125 L 3.609375 -8.21875 L 5.1875 -8.21875 L 7.59375 -1.4375 C 7.644531 -1.28125 7.703125 -1.144531 7.765625 -1.03125 C 7.828125 -0.925781 7.894531 -0.84375 7.96875 -0.78125 C 8.039062 -0.71875 8.117188 -0.671875 8.203125 -0.640625 C 8.285156 -0.617188 8.375 -0.609375 8.46875 -0.609375 L 8.671875 -0.609375 L 8.671875 0 L 4.875 0 L 4.875 -0.609375 L 5.3125 -0.609375 C 5.375 -0.609375 5.429688 -0.613281 5.484375 -0.625 C 5.546875 -0.644531 5.597656 -0.671875 5.640625 -0.703125 C 5.691406 -0.742188 5.734375 -0.789062 5.765625 -0.84375 C 5.796875 -0.90625 5.8125 -0.976562 5.8125 -1.0625 C 5.8125 -1.15625 5.800781 -1.242188 5.78125 -1.328125 C 5.757812 -1.410156 5.738281 -1.484375 5.71875 -1.546875 L 5.3125 -2.703125 Z M 4.46875 -5.296875 C 4.425781 -5.429688 4.382812 -5.566406 4.34375 -5.703125 C 4.300781 -5.847656 4.257812 -5.992188 4.21875 -6.140625 C 4.175781 -6.296875 4.132812 -6.445312 4.09375 -6.59375 C 4.050781 -6.75 4.015625 -6.890625 3.984375 -7.015625 C 3.953125 -6.898438 3.910156 -6.773438 3.859375 -6.640625 C 3.816406 -6.503906 3.769531 -6.363281 3.71875 -6.21875 C 3.675781 -6.070312 3.628906 -5.925781 3.578125 -5.78125 C 3.523438 -5.632812 3.476562 -5.492188 3.4375 -5.359375 L 2.75 -3.40625 L 5.078125 -3.40625 Z M 4.46875 -5.296875 "/></g></g></g><g fill="#12110f" fill-opacity="1"><g transform="translate(231.709092, 139.741554)"><g><path d="M 6.015625 -7.28125 C 6.015625 -7.34375 6 -7.394531 5.96875 -7.4375 C 5.9375 -7.488281 5.890625 -7.523438 5.828125 -7.546875 C 5.773438 -7.566406 5.707031 -7.582031 5.625 -7.59375 C 5.550781 -7.601562 5.46875 -7.609375 5.375 -7.609375 L 5.34375 -7.609375 L 5.34375 -8.21875 L 8.046875 -8.21875 L 8.046875 -7.609375 L 7.9375 -7.609375 C 7.820312 -7.609375 7.71875 -7.59375 7.625 -7.5625 C 7.539062 -7.539062 7.453125 -7.492188 7.359375 -7.421875 C 7.273438 -7.359375 7.1875 -7.273438 7.09375 -7.171875 C 7.007812 -7.066406 6.910156 -6.9375 6.796875 -6.78125 L 5.125 -4.5 L 7.25 -1.21875 C 7.394531 -0.976562 7.546875 -0.816406 7.703125 -0.734375 C 7.867188 -0.648438 8.023438 -0.609375 8.171875 -0.609375 L 8.3125 -0.609375 L 8.3125 0 L 4.515625 0 L 4.515625 -0.609375 L 4.578125 -0.609375 C 5.035156 -0.609375 5.265625 -0.734375 5.265625 -0.984375 C 5.265625 -1.035156 5.257812 -1.082031 5.25 -1.125 C 5.238281 -1.164062 5.21875 -1.210938 5.1875 -1.265625 C 5.164062 -1.316406 5.128906 -1.382812 5.078125 -1.46875 C 5.035156 -1.550781 4.96875 -1.65625 4.875 -1.78125 L 3.828125 -3.390625 L 2.578125 -1.703125 C 2.503906 -1.609375 2.4375 -1.5 2.375 -1.375 C 2.3125 -1.25 2.28125 -1.125 2.28125 -1 C 2.28125 -0.875 2.332031 -0.773438 2.4375 -0.703125 C 2.539062 -0.640625 2.722656 -0.609375 2.984375 -0.609375 L 3.015625 -0.609375 L 3.015625 0 L 0.109375 0 L 0.109375 -0.609375 L 0.1875 -0.609375 C 0.320312 -0.609375 0.441406 -0.625 0.546875 -0.65625 C 0.648438 -0.695312 0.75 -0.753906 0.84375 -0.828125 C 0.9375 -0.898438 1.023438 -0.984375 1.109375 -1.078125 C 1.203125 -1.179688 1.296875 -1.296875 1.390625 -1.421875 L 3.390625 -4.046875 L 1.5 -7 C 1.4375 -7.101562 1.375 -7.191406 1.3125 -7.265625 C 1.25 -7.347656 1.175781 -7.410156 1.09375 -7.453125 C 1.019531 -7.503906 0.9375 -7.539062 0.84375 -7.5625 C 0.75 -7.59375 0.632812 -7.609375 0.5 -7.609375 L 0.359375 -7.609375 L 0.359375 -8.21875 L 4.171875 -8.21875 L 4.171875 -7.609375 L 4.125 -7.609375 C 4 -7.609375 3.890625 -7.597656 3.796875 -7.578125 C 3.710938 -7.566406 3.644531 -7.546875 3.59375 -7.515625 C 3.539062 -7.484375 3.503906 -7.445312 3.484375 -7.40625 C 3.460938 -7.363281 3.453125 -7.320312 3.453125 -7.28125 C 3.453125 -7.195312 3.476562 -7.09375 3.53125 -6.96875 C 3.59375 -6.851562 3.664062 -6.726562 3.75 -6.59375 L 4.71875 -5.171875 L 5.71875 -6.578125 C 5.78125 -6.679688 5.84375 -6.796875 5.90625 -6.921875 C 5.976562 -7.054688 6.015625 -7.175781 6.015625 -7.28125 Z M 6.015625 -7.28125 "/></g></g></g><g fill="#12110f" fill-opacity="1"><g transform="translate(245.09114, 139.741554)"><g><path d="M 2.5 -2.703125 L 2.171875 -1.71875 C 2.140625 -1.625 2.109375 -1.515625 2.078125 -1.390625 C 2.046875 -1.265625 2.03125 -1.15625 2.03125 -1.0625 C 2.03125 -0.976562 2.046875 -0.910156 2.078125 -0.859375 C 2.109375 -0.804688 2.144531 -0.757812 2.1875 -0.71875 C 2.238281 -0.6875 2.296875 -0.660156 2.359375 -0.640625 C 2.421875 -0.617188 2.488281 -0.609375 2.5625 -0.609375 L 3.046875 -0.609375 L 3.046875 0 L 0.046875 0 L 0.046875 -0.609375 L 0.1875 -0.609375 C 0.289062 -0.609375 0.382812 -0.617188 0.46875 -0.640625 C 0.550781 -0.671875 0.628906 -0.710938 0.703125 -0.765625 C 0.773438 -0.828125 0.84375 -0.910156 0.90625 -1.015625 C 0.96875 -1.128906 1.035156 -1.273438 1.109375 -1.453125 L 3.609375 -8.21875 L 5.1875 -8.21875 L 7.59375 -1.4375 C 7.644531 -1.28125 7.703125 -1.144531 7.765625 -1.03125 C 7.828125 -0.925781 7.894531 -0.84375 7.96875 -0.78125 C 8.039062 -0.71875 8.117188 -0.671875 8.203125 -0.640625 C 8.285156 -0.617188 8.375 -0.609375 8.46875 -0.609375 L 8.671875 -0.609375 L 8.671875 0 L 4.875 0 L 4.875 -0.609375 L 5.3125 -0.609375 C 5.375 -0.609375 5.429688 -0.613281 5.484375 -0.625 C 5.546875 -0.644531 5.597656 -0.671875 5.640625 -0.703125 C 5.691406 -0.742188 5.734375 -0.789062 5.765625 -0.84375 C 5.796875 -0.90625 5.8125 -0.976562 5.8125 -1.0625 C 5.8125 -1.15625 5.800781 -1.242188 5.78125 -1.328125 C 5.757812 -1.410156 5.738281 -1.484375 5.71875 -1.546875 L 5.3125 -2.703125 Z M 4.46875 -5.296875 C 4.425781 -5.429688 4.382812 -5.566406 4.34375 -5.703125 C 4.300781 -5.847656 4.257812 -5.992188 4.21875 -6.140625 C 4.175781 -6.296875 4.132812 -6.445312 4.09375 -6.59375 C 4.050781 -6.75 4.015625 -6.890625 3.984375 -7.015625 C 3.953125 -6.898438 3.910156 -6.773438 3.859375 -6.640625 C 3.816406 -6.503906 3.769531 -6.363281 3.71875 -6.21875 C 3.675781 -6.070312 3.628906 -5.925781 3.578125 -5.78125 C 3.523438 -5.632812 3.476562 -5.492188 3.4375 -5.359375 L 2.75 -3.40625 L 5.078125 -3.40625 Z M 4.46875 -5.296875 "/></g></g></g><g fill="#12110f" fill-opacity="1"><g transform="translate(258.715, 139.741554)"><g><path d="M 4.890625 -0.796875 C 5.171875 -0.796875 5.421875 -0.828125 5.640625 -0.890625 C 5.859375 -0.960938 6.050781 -1.050781 6.21875 -1.15625 C 6.394531 -1.257812 6.546875 -1.375 6.671875 -1.5 C 6.804688 -1.632812 6.921875 -1.769531 7.015625 -1.90625 C 7.078125 -1.851562 7.125 -1.78125 7.15625 -1.6875 C 7.195312 -1.59375 7.21875 -1.5 7.21875 -1.40625 C 7.21875 -1.238281 7.175781 -1.066406 7.09375 -0.890625 C 7.007812 -0.710938 6.863281 -0.550781 6.65625 -0.40625 C 6.457031 -0.257812 6.191406 -0.132812 5.859375 -0.03125 C 5.523438 0.0625 5.109375 0.109375 4.609375 0.109375 C 3.941406 0.109375 3.359375 0.0078125 2.859375 -0.1875 C 2.367188 -0.394531 1.957031 -0.679688 1.625 -1.046875 C 1.289062 -1.421875 1.039062 -1.867188 0.875 -2.390625 C 0.71875 -2.910156 0.640625 -3.488281 0.640625 -4.125 C 0.640625 -4.75 0.722656 -5.316406 0.890625 -5.828125 C 1.054688 -6.347656 1.304688 -6.789062 1.640625 -7.15625 C 1.972656 -7.53125 2.382812 -7.820312 2.875 -8.03125 C 3.375 -8.238281 3.953125 -8.34375 4.609375 -8.34375 C 5.046875 -8.34375 5.425781 -8.304688 5.75 -8.234375 C 6.082031 -8.160156 6.359375 -8.0625 6.578125 -7.9375 C 6.796875 -7.820312 6.957031 -7.679688 7.0625 -7.515625 C 7.175781 -7.359375 7.234375 -7.1875 7.234375 -7 C 7.234375 -6.851562 7.203125 -6.71875 7.140625 -6.59375 C 7.078125 -6.476562 6.984375 -6.375 6.859375 -6.28125 C 6.742188 -6.195312 6.59375 -6.128906 6.40625 -6.078125 C 6.226562 -6.023438 6.023438 -6 5.796875 -6 C 5.796875 -6.1875 5.773438 -6.375 5.734375 -6.5625 C 5.691406 -6.757812 5.617188 -6.929688 5.515625 -7.078125 C 5.421875 -7.234375 5.289062 -7.359375 5.125 -7.453125 C 4.96875 -7.554688 4.769531 -7.609375 4.53125 -7.609375 C 4.164062 -7.609375 3.859375 -7.53125 3.609375 -7.375 C 3.359375 -7.21875 3.15625 -6.988281 3 -6.6875 C 2.84375 -6.394531 2.726562 -6.03125 2.65625 -5.59375 C 2.59375 -5.164062 2.5625 -4.675781 2.5625 -4.125 C 2.5625 -3.570312 2.601562 -3.085938 2.6875 -2.671875 C 2.769531 -2.253906 2.90625 -1.90625 3.09375 -1.625 C 3.28125 -1.351562 3.519531 -1.144531 3.8125 -1 C 4.101562 -0.863281 4.460938 -0.796875 4.890625 -0.796875 Z M 4.890625 -0.796875 "/></g></g></g><g fill="#12110f" fill-opacity="1"><g transform="translate(271.360362, 139.741554)"><g><path d="M 2.5 -2.703125 L 2.171875 -1.71875 C 2.140625 -1.625 2.109375 -1.515625 2.078125 -1.390625 C 2.046875 -1.265625 2.03125 -1.15625 2.03125 -1.0625 C 2.03125 -0.976562 2.046875 -0.910156 2.078125 -0.859375 C 2.109375 -0.804688 2.144531 -0.757812 2.1875 -0.71875 C 2.238281 -0.6875 2.296875 -0.660156 2.359375 -0.640625 C 2.421875 -0.617188 2.488281 -0.609375 2.5625 -0.609375 L 3.046875 -0.609375 L 3.046875 0 L 0.046875 0 L 0.046875 -0.609375 L 0.1875 -0.609375 C 0.289062 -0.609375 0.382812 -0.617188 0.46875 -0.640625 C 0.550781 -0.671875 0.628906 -0.710938 0.703125 -0.765625 C 0.773438 -0.828125 0.84375 -0.910156 0.90625 -1.015625 C 0.96875 -1.128906 1.035156 -1.273438 1.109375 -1.453125 L 3.609375 -8.21875 L 5.1875 -8.21875 L 7.59375 -1.4375 C 7.644531 -1.28125 7.703125 -1.144531 7.765625 -1.03125 C 7.828125 -0.925781 7.894531 -0.84375 7.96875 -0.78125 C 8.039062 -0.71875 8.117188 -0.671875 8.203125 -0.640625 C 8.285156 -0.617188 8.375 -0.609375 8.46875 -0.609375 L 8.671875 -0.609375 L 8.671875 0 L 4.875 0 L 4.875 -0.609375 L 5.3125 -0.609375 C 5.375 -0.609375 5.429688 -0.613281 5.484375 -0.625 C 5.546875 -0.644531 5.597656 -0.671875 5.640625 -0.703125 C 5.691406 -0.742188 5.734375 -0.789062 5.765625 -0.84375 C 5.796875 -0.90625 5.8125 -0.976562 5.8125 -1.0625 C 5.8125 -1.15625 5.800781 -1.242188 5.78125 -1.328125 C 5.757812 -1.410156 5.738281 -1.484375 5.71875 -1.546875 L 5.3125 -2.703125 Z M 4.46875 -5.296875 C 4.425781 -5.429688 4.382812 -5.566406 4.34375 -5.703125 C 4.300781 -5.847656 4.257812 -5.992188 4.21875 -6.140625 C 4.175781 -6.296875 4.132812 -6.445312 4.09375 -6.59375 C 4.050781 -6.75 4.015625 -6.890625 3.984375 -7.015625 C 3.953125 -6.898438 3.910156 -6.773438 3.859375 -6.640625 C 3.816406 -6.503906 3.769531 -6.363281 3.71875 -6.21875 C 3.675781 -6.070312 3.628906 -5.925781 3.578125 -5.78125 C 3.523438 -5.632812 3.476562 -5.492188 3.4375 -5.359375 L 2.75 -3.40625 L 5.078125 -3.40625 Z M 4.46875 -5.296875 "/></g></g></g><g fill="#12110f" fill-opacity="1"><g transform="translate(284.984222, 139.741554)"><g><path d="M 6.75 0 L 2.25 -6.34375 L 2.25 -1.359375 C 2.25 -1.191406 2.265625 -1.0625 2.296875 -0.96875 C 2.328125 -0.875 2.367188 -0.796875 2.421875 -0.734375 C 2.472656 -0.679688 2.535156 -0.644531 2.609375 -0.625 C 2.691406 -0.613281 2.769531 -0.609375 2.84375 -0.609375 L 3.328125 -0.609375 L 3.328125 0 L 0.328125 0 L 0.328125 -0.609375 L 0.796875 -0.609375 C 0.878906 -0.609375 0.957031 -0.613281 1.03125 -0.625 C 1.101562 -0.644531 1.164062 -0.679688 1.21875 -0.734375 C 1.269531 -0.796875 1.3125 -0.875 1.34375 -0.96875 C 1.375 -1.0625 1.390625 -1.191406 1.390625 -1.359375 L 1.390625 -6.90625 C 1.390625 -7.0625 1.375 -7.1875 1.34375 -7.28125 C 1.3125 -7.375 1.269531 -7.441406 1.21875 -7.484375 C 1.164062 -7.535156 1.101562 -7.566406 1.03125 -7.578125 C 0.957031 -7.597656 0.878906 -7.609375 0.796875 -7.609375 L 0.328125 -7.609375 L 0.328125 -8.21875 L 2.875 -8.21875 L 6.9375 -2.46875 L 6.9375 -6.90625 C 6.9375 -7.0625 6.921875 -7.1875 6.890625 -7.28125 C 6.859375 -7.375 6.816406 -7.441406 6.765625 -7.484375 C 6.710938 -7.535156 6.648438 -7.566406 6.578125 -7.578125 C 6.503906 -7.597656 6.429688 -7.609375 6.359375 -7.609375 L 5.875 -7.609375 L 5.875 -8.21875 L 8.875 -8.21875 L 8.875 -7.609375 L 8.390625 -7.609375 C 8.316406 -7.609375 8.242188 -7.597656 8.171875 -7.578125 C 8.097656 -7.566406 8.035156 -7.535156 7.984375 -7.484375 C 7.929688 -7.429688 7.890625 -7.351562 7.859375 -7.25 C 7.828125 -7.15625 7.8125 -7.023438 7.8125 -6.859375 L 7.8125 0 Z M 6.75 0 "/></g></g></g></svg>